<?xml version="1.0" encoding="UTF-8" standalone="no"?>
<!-- Created with Inkscape (http://www.inkscape.org/) -->

<svg
   xmlns:dc="http://purl.org/dc/elements/1.1/"
   xmlns:cc="http://creativecommons.org/ns#"
   xmlns:rdf="http://www.w3.org/1999/02/22-rdf-syntax-ns#"
   xmlns:svg="http://www.w3.org/2000/svg"
   xmlns="http://www.w3.org/2000/svg"
   xmlns:sodipodi="http://sodipodi.sourceforge.net/DTD/sodipodi-0.dtd"
   xmlns:inkscape="http://www.inkscape.org/namespaces/inkscape"
   width="1000mm"
   height="227.8698mm"
   viewBox="0 0 1000 227.8698"
   version="1.1"
   id="svg7804"
   inkscape:version="0.92.3 (2405546, 2018-03-11)"
   sodipodi:docname="Alfamidi.svg">
  <defs
     id="defs7798" />
  <sodipodi:namedview
     id="base"
     pagecolor="#ffffff"
     bordercolor="#666666"
     borderopacity="1.0"
     inkscape:pageopacity="0.0"
     inkscape:pageshadow="2"
     inkscape:zoom="0.35"
     inkscape:cx="1037.395"
     inkscape:cy="158.90057"
     inkscape:document-units="mm"
     inkscape:current-layer="layer1"
     showgrid="false"
     fit-margin-top="0"
     fit-margin-left="0"
     fit-margin-right="0"
     fit-margin-bottom="0"
     inkscape:window-width="1280"
     inkscape:window-height="738"
     inkscape:window-x="-8"
     inkscape:window-y="-8"
     inkscape:window-maximized="1" />
  <metadata
     id="metadata7801">
    <rdf:RDF>
      <cc:Work
         rdf:about="">
        <dc:format>image/svg+xml</dc:format>
        <dc:type
           rdf:resource="http://purl.org/dc/dcmitype/StillImage" />
        <dc:title></dc:title>
      </cc:Work>
    </rdf:RDF>
  </metadata>
  <g
     inkscape:label="Layer 1"
     inkscape:groupmode="layer"
     id="layer1"
     transform="translate(168.64408,218.4226)">
    <g
       id="g7849">
      <path
         inkscape:connector-curvature="0"
         id="path6153"
         style="fill:#e82e2d;fill-opacity:1;fill-rule:evenodd;stroke:none;stroke-width:32.91856384"
         d="m -61.621908,-218.24397 c 30.604625,0 61.24191037,0 91.754157,0 8.062198,0 13.615223,4.63819 15.050369,12.54198 0.09331,0.86874 0.09331,2.11008 0.09331,3.04171 0,65.39273 0,130.963217 0,196.2275677 0,9.3027873 -6.018654,15.8799171 -14.678052,15.8799171 -61.617027,0 -123.033432,0 -184.788556,0 -8.59408,0 -14.44477,-6.4849371 -14.44477,-15.8799171 0,-65.0306307 0.0299,-129.9559077 0,-194.9865377 -0.27994,-10.07638 6.27993,-17.09462 15.61957,-17.00245 30.46652,0.2734 60.879857,0.17729 91.392103,0.17729 z m 75.525251,74.49143 v 0 c -5.0855299,10.76767 -12.8845866,18.13154 -22.5163003,23.85279 -1.6422997,0.94143 -2.3701367,1.20149 -2.9020177,-1.07319 -1.978225,-6.48493 -4.227055,-12.87771 -6.42923,-19.09273 -4.441674,-13.14768 -8.463441,-26.46324 -13.279298,-39.54508 -2.678068,-6.5607 -7.297036,-10.93554 -13.680542,-12.77569 -8.528761,-2.5479 -17.223617,-2.5479 -26.02205,-1.67888 -11.712582,1.31674 -19.241033,6.93265 -23.18815,19.30675 -7.455665,23.64541 -15.557055,47.23485 -23.414895,70.71237 -6.35458,18.839301 -12.56826,37.500835 -18.53,56.330257 -1.67029,4.918034 -2.37013,10.106002 -1.27838,15.191915 2.01555,9.901909 11.45224,17.85174 21.28458,18.223721 11.10698,0.599066 18.971358,-5.010227 22.115055,-15.685696 1.996887,-6.419152 4.208393,-12.979794 5.617411,-19.46475 0.933125,-4.918034 3.443231,-8.071622 7.185061,-10.441768 0.37325,-0.697977 1.0451,-0.931259 1.875581,-1.399034 11.208694,-7.80167 23.787216,-9.908488 37.001195,-10.405554 1.56765,0 1.56765,1.194959 1.772937,2.343823 3.545875,13.147671 6.895792,26.051751 10.873703,39.097376 2.575425,9.200704 8.323473,14.286663 17.455965,15.695569 13.717867,2.268053 28.873679,-10.003993 26.295456,-26.555452 -0.559875,-2.557788 -1.175738,-5.629075 -1.875581,-8.167081 -3.9751117,-11.373372 -7.7915919,-23.056169 -11.54461967,-34.357112 -0.37324991,-1.642673 -0.37324991,-3.041707 0.65318737,-4.180679 4.1430739,-4.486837 6.7838169,-9.56284 9.0513103,-15.349925 4.684286,-13.0555 3.853805,-26.73316 3.51788,-40.582" />
      <path
         inkscape:connector-curvature="0"
         id="path6155"
         style="fill:#e82e2d;fill-opacity:1;fill-rule:evenodd;stroke:none;stroke-width:32.91856384"
         d="m 475.15811,-136.02655 c 6.92378,-2.74208 13.53964,-4.82258 20.80775,-4.7469 7.35302,0 11.60713,4.47694 11.27121,12.44651 0,6.1492 -1.9409,12.10087 -3.31259,17.79577 0,0.59627 -0.46657,1.29695 0,2.20227 3.64851,-5.5534 7.25038,-10.62941 11.50542,-15.18204 5.34681,-6.21499 11.00155,-11.73877 17.98972,-15.3236 3.68584,-1.93894 7.59563,-3.18326 11.44944,-3.07791 9.42456,0.33592 14.10884,5.88587 14.27681,15.85358 0.18662,5.62581 -1.36237,11.14952 -2.37014,16.66338 -0.27994,0.9711 -0.27994,1.94221 -0.55988,3.9404 2.27683,-3.07129 3.91913,-5.68506 5.86003,-8.42714 6.38257,-8.76288 13.61242,-17.31846 22.77664,-23.03971 5.14152,-3.24578 10.62922,-5.32618 16.72253,-4.72049 7.7636,0.86874 11.80496,5.61591 12.04477,14.11877 0.37325,6.38948 -1.17573,12.43663 -2.14618,18.72737 -3.11664,15.349928 -6.28927,30.670231 -8.72472,45.927987 -0.65319,5.513835 -0.65319,10.711703 0.65319,15.787743 0.65318,2.873838 1.77293,5.16158 3.94711,7.363848 -7.09174,4.644815 -14.68831,7.95974 -23.27026,6.119525 -6.2706,-1.47471 -9.64851,-6.287488 -10.2737,-13.651335 -0.46657,-7.45604 1.06376,-14.81665 2.29548,-22.104811 3.014,-14.790317 5.92534,-29.169144 8.74338,-43.725737 0.27994,-1.03689 0.27994,-1.83023 0.27994,-2.70588 -0.27994,-0.9711 -0.93313,-1.29695 -1.96889,-0.64479 -1.51167,0.54961 -2.78072,1.613 -3.77916,3.08771 -9.30325,11.30094 -16.63761,24.11285 -23.44849,37.158485 -3.37791,6.596912 -6.39191,13.585485 -9.09797,20.340375 -2.2395,6.057006 -4.52565,12.34776 -1.21306,18.506822 0.65319,0.931258 -0.27994,0.931258 -0.7465,1.389142 -6.18662,2.350355 -12.58785,3.854739 -19.53683,2.452439 -6.05598,-1.408925 -8.99533,-6.764781 -7.86624,-14.023316 1.43701,-9.190906 3.98444,-17.963659 5.75738,-26.920799 2.94867,-12.242419 5.48677,-24.260982 7.12907,-36.700908 0.37325,-1.83685 1.80093,-4.20699 -0.37325,-5.28998 -1.67029,-0.93125 -3.24728,1.25095 -4.42301,2.5479 -7.92223,8.77277 -13.77292,18.931469 -19.36234,29.373238 -4.88024,9.138184 -9.06064,18.233594 -13.13746,27.799727 -2.75272,6.287488 -4.6563,12.502472 -1.48367,19.372575 0.65318,0.931259 -0.0672,0.931259 -0.55988,1.389143 -6.3919,2.350355 -13.04602,4.022608 -19.39873,2.350355 -7.85691,-1.836856 -10.97541,-8.229601 -8.6314,-17.328332 3.54587,-14.490756 7.22238,-28.497602 10.33622,-42.784265 2.16485,-10.711691 3.93779,-21.469481 4.64696,-32.612421 0.18663,-3.1437 0.83981,-7.15651 -2.8087,-9.70439" />
      <path
         inkscape:connector-curvature="0"
         id="path6157"
         style="fill:#1560aa;fill-opacity:1;fill-rule:evenodd;stroke:none;stroke-width:32.91856384"
         d="m 221.33978,-53.473379 c 0,12.179872 -9.4087,20.745286 -19.47432,19.876239 -8.39812,-0.707309 -13.18785,-4.710601 -15.59438,-13.651335 -0.93312,-3.676979 -2.30482,-7.45604 -3.4059,-11.300944 -0.27994,-1.343046 -0.7465,-2.274678 -2.48212,-2.274678 -12.66996,0.167963 -25.22236,0.167963 -37.79062,0 -1.83825,0 -2.2115,0.86594 -2.71539,2.172594 -1.12908,3.854739 -2.5101,7.45604 -3.27527,11.133056 -3.21928,13.21356 -13.80931,15.593578 -21.9107,13.315615 -10.1328,-2.975828 -15.422685,-12.54198 -12.44695,-23.645409 3.21928,-11.505036 7.36235,-22.608474 11.07712,-33.91929 7.23172,-22.114689 14.81709,-43.923249 21.73994,-66.103779 3.40591,-10.66562 9.16329,-16.45928 19.93248,-17.43038 5.89735,-0.4283 12.11383,-0.4283 18.03917,1.31673 6.58786,1.23117 10.93529,5.68171 13.23917,12.43993 4.9269,14.81665 9.83607,29.6333 14.64913,44.1833 6.19595,18.661539 12.15022,36.625199 18.3359,55.194559 1.13841,3.347865 2.00622,6.93265 2.08087,8.69383 z M 148.47113,-91.76754 v 0 c 7.83825,0 15.69516,0 23.48768,0 1.9409,0.335925 2.2395,-0.362053 1.57698,-2.538006 -2.84603,-9.908504 -5.82269,-20.014514 -8.77137,-29.972374 -0.83981,-3.77907 -2.03421,-7.20261 -3.1073,-11.13964 h -0.46657 c -4.21772,14.44466 -8.55675,29.00126 -12.71662,43.65002" />
      <path
         inkscape:connector-curvature="0"
         id="path6159"
         style="fill:#1161ab;fill-opacity:1;fill-rule:evenodd;stroke:none;stroke-width:32.91856384"
         d="m 448.3597,-86.447899 c -0.18663,12.278625 0.55987,24.455203 -0.18663,36.559352 -1.43701,14.191195 -14.11911,22.012647 -25.29794,15.685706 -1.93157,-0.961212 -3.23795,-2.202268 -4.40435,-3.407118 -0.7465,-1.408925 -1.40902,-1.241056 -2.61275,-0.437636 -28.70479,16.824557 -65.59961,-2.715953 -69.84626,-37.435117 -2.17418,-17.963669 1.10109,-34.452578 12.2454,-48.028188 9.20061,-11.58075 21.33123,-16.12681 35.01924,-17.2625 8.0622,-0.43111 15.72128,1.50111 22.81583,5.68179 0.97045,0.69798 1.6703,1.08308 2.58476,-0.1577 5.3748,-5.59949 11.66312,-6.83056 18.4936,-3.95682 6.78381,2.38003 10.12533,8.49956 11.00154,16.05768 0.7465,10.6755 0.18662,21.3872 0.18662,32.082442 0,1.836856 0,3.245781 0,4.618501 z m -50.74426,27.796434 v 0 c 7.60497,0 11.50449,-3.153589 13.65161,-10.93555 2.2395,-6.689012 2.2395,-13.680953 1.84759,-20.781491 -0.27994,-5.513834 -0.83981,-10.431884 -3.42457,-15.517804 -1.7636,-3.94694 -4.46966,-6.49483 -8.75271,-7.19272 -8.51009,-1.73813 -15.79687,2.5479 -18.74647,11.6433 -3.23795,10.09613 -3.23795,20.699199 0,31.140967 2.37947,7.864282 7.82891,11.643298 15.42548,11.643298" />
      <path
         inkscape:connector-curvature="0"
         id="path6161"
         style="fill:#e82e2d;fill-opacity:1;fill-rule:evenodd;stroke:none;stroke-width:32.91856384"
         d="m 731.86073,-68.290019 c -4.81493,6.560707 -9.1353,13.49332 -14.52036,19.270529 -5.99066,7.100519 -12.51227,13.417606 -21.4796,15.356508 -4.01243,0.86874 -7.69828,0.934898 -11.36639,0.167963 -8.74338,-1.846747 -13.08241,-8.331684 -14.34959,-16.926734 -2.67807,-14.451247 -0.46656,-28.300087 4.21772,-41.615647 4.97356,-14.37883 12.97044,-26.92081 23.98131,-36.72724 13.44726,-12.0087 28.35579,-14.18462 44.88143,-6.92602 0.7465,0.2734 1.90358,1.68214 2.10886,-0.33593 1.00778,-6.68901 2.54743,-13.34189 1.90358,-20.26795 -0.46656,-4.54274 -0.46656,-4.54274 3.8538,-6.71542 4.91757,-2.38003 9.86313,-3.519 15.45255,-3.25894 8.29548,0.60933 12.5412,6.0208 11.04073,14.55659 -1.83825,9.9019 -4.24572,19.80051 -6.27993,29.43249 -3.81648,17.63447 -7.47433,34.896968 -9.74089,52.692739 -1.17573,9.694523 -1.17573,19.698469 3.00466,28.731331 0.55988,0.971103 0.0933,1.29695 -0.65318,1.836856 -7.12908,5.964814 -15.25379,8.061732 -23.8852,4.555889 -5.88801,-2.613683 -8.56608,-8.065091 -9.06997,-14.622429 -0.55987,-6.214984 0.46656,-12.719732 0.83981,-19.204687 z m -32.11909,-1.063295 v 0 c -0.0933,2.47222 0,5.076012 0.37325,7.548232 0.7465,4.888454 3.18195,5.793679 6.7185,2.725658 3.61119,-2.725658 6.01865,-6.494828 8.53809,-10.273881 8.15551,-11.040891 14.1443,-23.385357 20.92905,-34.860765 4.59098,-7.55813 4.24572,-8.25928 -2.8367,-13.14767 -0.0933,-0.26314 -0.37325,-0.4675 -0.46656,-0.69145 -7.89423,-5.36575 -14.52035,-4.12469 -20.14616,3.73297 -1.06376,1.24105 -1.76361,2.54789 -2.40746,4.04901 -5.81337,12.887733 -9.79688,26.361299 -10.70294,40.917896" />
      <path
         inkscape:connector-curvature="0"
         id="path6163"
         style="fill:#1260aa;fill-opacity:1;fill-rule:evenodd;stroke:none;stroke-width:32.91856384"
         d="m 323.95364,-79.768722 c 0,8.568698 0,17.963659 0,26.736459 0,1.836856 0,3.58152 -0.18663,5.316385 -1.7636,9.668181 -8.3328,14.921981 -17.49609,14.118775 -9.96484,-0.707308 -15.90977,-7.42646 -16.088,-17.858328 -0.37325,-8.437034 0,-17.199953 -0.27994,-25.857531 0,-10.50761 0,-21.209431 0.27994,-31.641328 0,-2.01788 -0.27994,-2.98572 -2.5381,-3.31492 -4.451,-0.37232 -8.09952,-2.31415 -10.73747,-6.42895 -4.20839,-7.62391 0,-16.39345 8.43545,-18.12826 4.54432,-0.879 4.84292,-0.879 4.54432,-5.88913 0,-4.1148 0,-8.2297 0.83981,-11.98236 1.87558,-9.39496 7.28771,-15.6857 15.55426,-19.02694 10.40154,-3.95682 20.57353,-3.77906 31.17383,-0.26034 6.89579,1.99819 10.70481,7.45604 10.26717,14.21095 -0.27994,6.21508 -3.77915,9.79985 -9.73436,9.63855 -2.70606,0 -5.20683,-0.37231 -7.72627,0 -4.04976,0.3294 -5.95333,2.53801 -6.22394,6.99191 -0.18663,5.78378 -0.18663,5.87598 5.18817,5.78378 2.27683,0 4.78693,0.0921 7.05443,0.53375 5.48677,1.13571 9.23793,5.34597 9.5104,11.57088 0.37325,5.95165 -2.44478,10.07636 -7.95955,12.17657 -3.81648,1.30684 -7.56764,1.13897 -11.4793,1.13897 -1.9409,-0.32939 -2.31415,0.37232 -2.31415,2.44255 0,9.938111 0,19.737964 0,29.728754" />
      <path
         inkscape:connector-curvature="0"
         id="path6165"
         style="fill:#1560aa;fill-opacity:1;fill-rule:evenodd;stroke:none;stroke-width:32.91856384"
         d="m 232.73323,-104.74733 c 0,-17.53243 -0.0933,-34.89039 0,-52.42282 0,-9.35875 5.5241,-16.8148 12.88365,-18.72737 10.77106,-3.0153 19.77478,3.91073 21.64103,15.64948 0.18663,2.11661 0.46656,4.1609 0.46656,6.42895 0,32.57293 0,65.093173 0,97.613429 0,2.732282 -0.27993,5.513834 -1.03577,8.249382 -2.37946,9.273114 -8.59407,14.724476 -17.22361,14.461129 -8.23949,-0.269673 -14.52969,-6.129416 -16.2653,-15.524396 -0.55987,-2.603885 -0.55987,-5.685063 -0.55987,-8.223069 0,-15.863457 0,-31.921134 0,-47.504785 z" />
      <path
         inkscape:connector-curvature="0"
         id="path6167"
         style="fill:#e82e2d;fill-opacity:1;fill-rule:evenodd;stroke:none;stroke-width:32.91856384"
         d="m 815.38472,-40.15781 c -7.55831,5.694861 -15.49173,8.23296 -24.25098,6.662698 -6.62518,-0.967837 -10.57323,-6.22161 -10.90916,-13.845556 -0.83981,-7.893862 1.24106,-15.593523 2.84603,-23.1615 2.91135,-14.612547 6.58786,-28.89921 8.99532,-43.613812 0.99845,-5.34597 1.53966,-11.06721 0.37325,-16.59095 0,-0.77356 -0.0933,-1.63278 -0.46656,-2.27794 -1.40902,-3.67372 -1.40902,-3.67372 2.43546,-4.7205 6.59719,-1.93231 13.28583,-3.76917 20.20215,-3.06802 8.29548,1.56691 11.54089,6.76479 9.40496,15.15242 -2.78071,10.80387 -5.74805,21.57482 -8.0342,32.520246 -2.52877,11.067224 -4.7776,21.900728 -5.95334,33.310296 -0.0672,3.081178 -0.0672,6.057006 0.18663,8.864965 0.7465,4.180679 1.81026,7.857657 5.15085,10.767663" />
      <path
         inkscape:connector-curvature="0"
         id="path6169"
         style="fill:#e82e2d;fill-opacity:1;fill-rule:evenodd;stroke:none;stroke-width:32.91856384"
         d="m 634.34919,-123.14881 c 0,-5.1781 -0.46656,-8.59502 -2.27683,-12.0087 -0.37325,-0.86873 -0.18662,-1.23116 0.7465,-1.66898 8.03421,-2.64336 16.18879,-4.98391 24.71848,-3.23916 6.45722,1.23117 9.35831,6.21499 7.59563,13.47358 -1.94089,9.51016 -4.44167,18.49363 -6.75582,27.891889 -2.84603,12.252292 -5.48677,25.064197 -7.02643,37.606168 -0.46656,5.082638 -0.27994,10.168541 1.24106,15.152416 0.46656,0.971103 0.7465,1.836856 1.26905,2.873838 0.83981,1.073186 2.2395,2.304258 1.96889,2.807959 -0.55987,1.850013 -2.2395,2.380028 -3.37791,2.9232 -5.61741,3.133899 -11.2059,4.812684 -17.49702,4.282669 -9.12596,-0.980994 -13.70667,-6.224875 -13.87463,-16.22885 -0.0327,-7.42646 1.81026,-14.88249 3.27526,-22.414254 2.81804,-14.480883 6.79315,-28.767535 9.20061,-43.482135 0.37325,-2.98572 0.55988,-6.39275 0.83982,-7.96964" />
      <path
         inkscape:connector-curvature="0"
         id="path6171"
         style="fill:#e92d2e;fill-opacity:1;fill-rule:evenodd;stroke:none;stroke-width:32.91856384"
         d="m 660.16688,-175.89752 c 0.46657,0 1.0731,0 1.78227,0 8.72472,0.59534 12.14089,6.12942 9.86313,15.06024 -1.13841,4.37487 -3.44323,7.01822 -7.52098,8.32516 -4.9269,1.39903 -9.63918,2.70587 -14.85628,2.09691 -7.02643,-1.29695 -9.03265,-3.93704 -7.36236,-11.40298 0.93313,-3.0417 1.6423,-6.11952 0,-9.35875 -0.7465,-1.13897 0.93313,-0.9711 1.40902,-1.13897 5.51477,-2.44255 10.93529,-3.51574 16.68241,-3.58152" />
      <path
         inkscape:connector-curvature="0"
         id="path6173"
         style="fill:#e92d2e;fill-opacity:1;fill-rule:evenodd;stroke:none;stroke-width:32.91856384"
         d="m 800.56484,-171.98679 c 7.55831,-2.77176 15.18193,-5.14189 23.01365,-3.40703 6.26127,1.0633 8.86469,5.95166 7.36236,12.61439 -0.93313,5.28345 -3.3126,9.1283 -8.96733,10.42531 -4.88025,1.34305 -9.69517,2.5479 -14.74431,1.84675 -5.92534,-1.47471 -7.90356,-4.19057 -6.22394,-10.39568 0.0933,-1.34305 0.37325,-2.75197 0.7465,-4.04902 0.55987,-2.28783 0.27994,-4.55262 -1.20373,-7.03473" />
      <path
         inkscape:connector-curvature="0"
         id="path6175"
         style="fill:#ffffff;fill-opacity:1;fill-rule:evenodd;stroke:none;stroke-width:32.91856384"
         d="m 13.903343,-143.75254 c 0.37325,13.84884 1.166406,27.5265 -3.51788,40.58201 -2.2674935,5.787053 -4.9082366,10.863121 -9.0513105,15.349921 -0.97978095,1.138972 -0.97978095,2.538006 -0.65318729,4.180679 3.75116149,11.300943 7.56764179,22.98374 11.54461979,34.357112 0.653187,2.538006 1.278381,5.609293 1.87558,8.167081 2.575425,16.55145 -12.5775881,28.823487 -26.294522,26.555405 -9.135291,-1.408925 -14.88334,-6.494828 -17.456898,-15.695578 -3.975111,-13.045625 -7.325029,-25.949705 -10.87277,-39.097376 -0.186624,-1.148864 -0.186624,-2.343823 -1.772937,-2.343823 -13.213979,0.497355 -25.792501,2.603884 -37.001195,10.405563 -0.839813,0.467496 -1.530325,0.700777 -1.875581,1.399034 -3.74183,2.370137 -6.289261,5.523725 -7.185061,10.441769 -1.409018,6.48503 -3.620524,13.045672 -5.617411,19.464786 -3.14463,10.67547 -11.00807,16.2848 -22.11506,15.685678 -9.83233,-0.372317 -19.26716,-8.321793 -21.28457,-18.223721 -1.09176,-5.085903 -0.37325,-10.273881 1.27838,-15.191915 5.96267,-18.829422 12.17634,-37.490956 18.52999,-56.330245 7.85691,-23.47753 15.95923,-47.06698 23.4149,-70.71238 3.947117,-12.37409 11.475568,-17.99 23.18815,-19.30674 8.799366,-0.86874 17.496089,-0.86874 26.02205,1.67888 6.382573,1.84012 11.00434,6.21508 13.680542,12.7757 4.814923,13.08184 8.836691,26.3974 13.279298,39.54507 2.202175,6.21498 4.451005,12.60781 6.42923,19.09277 0.559875,2.27468 1.259718,2.01462 2.9020177,1.07319 9.63171368,-5.72127 17.4335697,-13.08513 22.5163003,-23.85284 z m -91.323053,52.580819 v 0 c 7.903566,-7.350691 16.394068,-11.998809 25.456576,-15.142539 1.978224,-0.43763 0.839812,-1.78422 0.559875,-2.64009 -3.144631,-10.88285 -6.083974,-21.65051 -9.368573,-32.42805 -0.09331,-0.96121 -0.09331,-1.99483 -1.259718,-2.80796 -5.020211,17.53243 -10.014295,34.79493 -15.396559,53.018639" />
      <path
         inkscape:connector-curvature="0"
         id="path6177"
         style="fill:#e92d2e;fill-opacity:1;fill-rule:evenodd;stroke:none;stroke-width:32.91856384"
         d="m -77.41971,-91.171721 c 5.384129,-18.223709 10.376347,-35.486209 15.396558,-53.018639 1.138412,0.81275 1.138412,1.84675 1.259718,2.80796 3.2846,10.77754 6.223943,21.5452 9.368573,32.42807 0.279937,0.85568 1.409018,2.20227 -0.559875,2.64009 -9.060641,3.1437 -17.552077,7.791875 -25.455643,15.142537" />
    </g>
  </g>
</svg>
